<svg id="rupee" xmlns="http://www.w3.org/2000/svg" width="32.592" height="30.996" viewBox="0 0 32.592 30.996">
  <path id="Path_1" data-name="Path 1" d="M32.592,512h0Z" transform="translate(0 -481.004)" fill="#166ae8"/>
  <g id="Group_1" data-name="Group 1" transform="translate(6.302)">
    <path id="Path_2" data-name="Path 2" d="M108.421,25.076l-8.909,6.679,4.137,2.068,4.771-3.577v-5.17Zm1.146,0v5.17l4.771,3.577,4.138-2.068Zm.591,1.42,2.332,1.683c-1.6-.268-1.893.586-2.377,1.833l.046-3.516Zm-2.406.25-.017,2.124c-1.4.075-3.615.918-6.868,2.8l6.886-4.924Zm1.242,4.5-4.711,3.532v9.991l4.711,3.532,4.711-3.532V34.781l-4.711-3.532Zm.268,1.125c-2.387,2.154-3.86,10.493-4.052,12.674l-.022-9.618,4.074-3.056ZM99,32.78V46.772l4.138-2.068V34.848Zm19.988,0-4.138,2.068V44.7l4.138,2.068ZM99.805,34.264l2.576,1.326c-2.946,2.467-1.96,7.81-2.666,10.349l.089-11.675Zm3.845,11.465L99.513,47.8l8.909,6.679v-5.17l-4.771-3.577Zm10.688,0-4.771,3.577v5.17l8.909-6.679Zm-10.784,1.093c-1.247,1.036-1.066,1.551.285,3.464l-2.817-2.42,2.532-1.044Z" transform="translate(-99 -25.076)" fill="#166ae8"/>
  </g>
</svg>
